<?xml version="1.0" encoding="utf-8"?>
<!-- Generator: Adobe Illustrator 24.0.2, SVG Export Plug-In . SVG Version: 6.00 Build 0)  -->
<svg version="1.1" id="Layer_1" xmlns="http://www.w3.org/2000/svg" xmlns:xlink="http://www.w3.org/1999/xlink" x="0px" y="0px"
	 viewBox="0 0 1000 1000" style="enable-background:new 0 0 1000 1000;" xml:space="preserve">
<style type="text/css">
	.st0{fill:#E6E6E6;}
	.st1{fill:#FFFFFF;}
	.st2{fill:#3F3D56;}
	.st3{fill:#00B0FF;}
	.st4{fill:#CCCCCC;}
	.st5{fill:#2F2E41;}
	.st6{fill:#FFB9B9;}
</style>
<g>
	<g>
		<rect x="308.26" y="37.57" class="st0" width="684.74" height="360.65"/>
		<path class="st1" d="M328.2,378.28h644.85V57.51H328.2V378.28z"/>
		<rect x="378.06" y="104.05" class="st2" width="229.36" height="229.36"/>
		<circle class="st3" cx="552.57" cy="202.11" r="6.65"/>
		<circle class="st3" cx="527.64" cy="178.84" r="6.65"/>
		<path class="st3" d="M524.32,202.11c-2.45,0-4.84,0.68-6.93,1.96c-1.83-2.76-3.99-5.29-6.42-7.54c0.03-0.35,0.05-0.71,0.05-1.07
			c0.01-7.34-5.94-13.29-13.28-13.3c-3.45,0-6.76,1.33-9.24,3.73c-3.56-0.51-7.17-0.54-10.74-0.09c0-0.1,0.02-0.21,0.02-0.31
			c0.01-7.34-5.94-13.3-13.28-13.31c-7.34-0.01-13.3,5.94-13.31,13.28c0,3.85,1.66,7.51,4.55,10.04c-2.23,1.91-4.24,4.04-6.02,6.37
			c-5.64-4.7-14.03-3.93-18.72,1.72c-4.7,5.64-3.93,14.03,1.72,18.72c2.39,1.99,5.4,3.08,8.51,3.08l0.04,0
			c-0.02,0.55-0.04,1.11-0.04,1.66c0,3.35,0.4,6.68,1.2,9.93c-12.88,4.85-19.39,19.22-14.55,32.1c4.85,12.88,19.22,19.39,32.1,14.55
			c7.14-2.69,12.66-8.5,14.97-15.77c9.25,1.78,18.83,0.36,27.16-4.03c2.87,6.76,10.68,9.91,17.44,7.04s9.91-10.68,7.04-17.44
			c-1.35-3.17-3.87-5.69-7.04-7.04c2.88-5.46,4.5-11.51,4.73-17.68l0.04,0c7.34,0,13.3-5.95,13.3-13.3
			C537.61,208.06,531.66,202.11,524.32,202.11L524.32,202.11z"/>
		<rect x="454.51" y="99.06" class="st0" width="66.48" height="9.97"/>
		<rect x="670.57" y="104.05" class="st2" width="229.36" height="229.36"/>
		<circle class="st3" cx="828.79" cy="256.62" r="2.99"/>
		<circle class="st3" cx="817.58" cy="246.15" r="2.99"/>
		<path class="st3" d="M816.08,256.62c-1.1,0-2.18,0.31-3.12,0.88c-0.83-1.24-1.8-2.38-2.89-3.39c0.01-0.16,0.02-0.32,0.02-0.48
			c0-3.3-2.67-5.98-5.97-5.98c-1.55,0-3.04,0.6-4.16,1.68c-1.6-0.23-3.23-0.24-4.83-0.04c0-0.05,0.01-0.09,0.01-0.14
			c0-3.3-2.67-5.99-5.98-5.99c-3.3,0-5.99,2.67-5.99,5.98c0,1.73,0.75,3.38,2.05,4.52c-1,0.86-1.91,1.82-2.71,2.87
			c-2.54-2.11-6.31-1.77-8.43,0.77c-2.11,2.54-1.77,6.31,0.77,8.43c1.07,0.89,2.43,1.38,3.83,1.38l0.02,0
			c-0.01,0.25-0.02,0.5-0.02,0.75c0,1.51,0.18,3.01,0.54,4.47c-5.8,2.18-8.73,8.65-6.55,14.44c2.18,5.8,8.65,8.73,14.44,6.55
			c3.21-1.21,5.7-3.82,6.74-7.1c4.16,0.8,8.47,0.16,12.22-1.81c1.29,3.04,4.81,4.46,7.85,3.17c3.04-1.29,4.46-4.81,3.17-7.85
			c-0.61-1.43-1.74-2.56-3.17-3.17c1.3-2.46,2.02-5.18,2.13-7.95l0.02,0c3.3,0,5.98-2.68,5.98-5.98S819.38,256.62,816.08,256.62
			L816.08,256.62z"/>
		<circle class="st3" cx="852.27" cy="199.85" r="2.99"/>
		<circle class="st3" cx="859.3" cy="186.21" r="2.99"/>
		<path class="st3" d="M848.82,187.61c-0.3-1.06-0.89-2.02-1.7-2.76c0.97-1.13,1.8-2.37,2.48-3.7c0.16-0.03,0.31-0.06,0.47-0.11
			c3.18-0.89,5.03-4.19,4.14-7.37c-0.42-1.49-1.4-2.76-2.74-3.55c-0.22-1.6-0.64-3.17-1.27-4.66c0.05-0.01,0.09-0.02,0.14-0.03
			c3.18-0.89,5.04-4.19,4.15-7.38c-0.89-3.18-4.19-5.04-7.38-4.15c-1.67,0.47-3.05,1.63-3.79,3.2c-1.1-0.73-2.27-1.35-3.49-1.83
			c1.35-3.02-0.01-6.55-3.03-7.9c-3.02-1.35-6.55,0.01-7.9,3.03c-0.57,1.28-0.67,2.71-0.29,4.06l0.01,0.02
			c-0.24,0.06-0.48,0.12-0.73,0.18c-1.45,0.41-2.84,0.99-4.15,1.73c-3.67-4.99-10.69-6.06-15.68-2.39
			c-4.99,3.67-6.06,10.69-2.39,15.68c2.04,2.77,5.23,4.45,8.66,4.56c0.36,4.22,2.14,8.2,5.06,11.27c-2.58,2.07-2.99,5.83-0.92,8.41
			c2.07,2.58,5.83,2.99,8.41,0.92c1.21-0.97,1.99-2.37,2.19-3.91c2.72,0.58,5.53,0.54,8.23-0.11l0,0.02c0.9,3.18,4.2,5.03,7.38,4.14
			C847.86,194.1,849.71,190.79,848.82,187.61C848.82,187.61,848.82,187.61,848.82,187.61L848.82,187.61z"/>
		<circle class="st3" cx="736.4" cy="159.2" r="2.99"/>
		<circle class="st3" cx="721.1" cy="160.42" r="2.99"/>
		<path class="st3" d="M727.82,168.59c-0.74,0.81-1.24,1.82-1.45,2.9c-1.47-0.23-2.97-0.28-4.45-0.15
			c-0.11-0.12-0.22-0.23-0.34-0.34c-2.44-2.23-6.22-2.06-8.45,0.38c-1.05,1.14-1.61,2.65-1.56,4.2c-1.25,1.03-2.35,2.22-3.29,3.54
			c-0.03-0.03-0.06-0.07-0.1-0.1c-2.44-2.23-6.22-2.06-8.45,0.37c-2.23,2.44-2.06,6.22,0.37,8.45c1.28,1.17,3,1.73,4.72,1.53
			c-0.04,1.32,0.06,2.64,0.29,3.94c-3.27,0.45-5.56,3.47-5.11,6.74c0.45,3.27,3.47,5.56,6.74,5.11c1.39-0.19,2.66-0.86,3.6-1.89
			l0.01-0.01c0.18,0.17,0.35,0.35,0.54,0.52c1.11,1.01,2.34,1.89,3.66,2.61c-2.3,5.75,0.5,12.28,6.25,14.57
			c5.75,2.3,12.28-0.5,14.57-6.25c1.27-3.19,1.02-6.79-0.7-9.76c3.4-2.53,5.83-6.15,6.9-10.25c3.12,1.1,6.53-0.54,7.63-3.66
			c1.1-3.12-0.54-6.53-3.66-7.63c-1.46-0.51-3.07-0.44-4.48,0.2c-0.94-2.61-2.46-4.99-4.44-6.94l0.01-0.01
			c2.23-2.43,2.07-6.22-0.36-8.45c-2.43-2.24-6.22-2.07-8.45,0.36C727.84,168.57,727.83,168.58,727.82,168.59L727.82,168.59z"/>
		<rect x="747.02" y="99.06" class="st0" width="66.48" height="9.97"/>
	</g>
	<g>
		<rect x="253.49" y="445.95" class="st4" width="195.13" height="218.19"/>
		<polygon class="st0" points="154.16,992.32 54.82,992.32 44.17,907.17 164.8,907.17 		"/>
		<path class="st0" d="M353.63,930.64l-3.35,45.83c-0.59,8.04,5.45,15.03,13.49,15.61c0.65,0.05,1.3,0.05,1.95,0.01l23.54-1.43
			c4.1-0.25,7.23-3.78,6.98-7.88c-0.03-0.46-0.1-0.91-0.21-1.35l-13.07-52.26L353.63,930.64z"/>
		<path class="st0" d="M550.53,957.74c27.7,6.48,47.49,15.69,60.5,28.16c4.63,4.41,10.69,7,17.07,7.32
			c8.15,0.43,14.82-0.49,19.83-2.72h0c2.61-1.15,4.4-3.63,4.66-6.48c0.31-2.89-0.97-5.72-3.35-7.39l-65.71-46.75l-27.91,11.17
			l-6.51,6.51c-2.52,2.52-2.52,6.6,0,9.12C549.53,957.09,550.01,957.45,550.53,957.74L550.53,957.74z"/>
		<path class="st5" d="M465.27,209.48l-187.81-1.74c0.47-27.35,6.84-54.22,20.75-78.25c9.14-15.79,8.94-32.97,6.74-47.44
			c-3.4-22.34,4.5-45.19,22.06-59.41c13.42-10.89,30.35-16.49,47.62-15.75l3.65,0.15c24.14,1,46.11,14.22,58.31,35.07
			c6.1,10.95,8.56,23.57,7.03,36.01c-1.19,11.71,1.66,23.54,8.32,35.48C463.42,139.82,465.91,173.37,465.27,209.48z"/>
		<path class="st3" d="M590.92,932.32l-36.86,9.62L374.57,550.9l11.22,381.42h-36.86c-39.39-179.45-110.5-386.55-78.53-451.93
			l190.71-11.22L590.92,932.32z"/>
		<circle class="st6" cx="372.97" cy="94.16" r="49.68"/>
		<path class="st6" d="M416.24,185.51l-81.73-4.81c8.01-18.38,11.21-36.09,8.01-52.89h60.9
			C403.28,140.71,409.7,163.02,416.24,185.51z"/>
		<polygon class="st3" points="467.52,483.59 288.03,496.41 306.46,178.3 337.71,169.48 372.97,177.49 408.23,159.86 430.66,167.88 
					"/>
		<path class="st0" d="M318.48,712.76l-122.6-28.05c36.45-120.89,102.13-397.45,80.93-496l64.1-28.85L318.48,712.76z"/>
		<path class="st0" d="M259.19,363.4l-46.48-28.85l39.64-116.08c4.42-11.98,12.89-22.04,23.94-28.43l13.35-7.73l-8.01,116.99
			L259.19,363.4z"/>
		<path class="st0" d="M574.1,686.32c-38.69,22.39-135.42,34.87-177.89,19.23c-3.13-109.22-9.25-418.18,10.42-548.89l70.51,28.85
			l-6.41,86.54C437.02,346.08,534.91,603.93,574.1,686.32z"/>
		<polygon class="st0" points="568.49,348.97 525.22,334.55 467.52,268.84 477.14,185.51 573.3,320.13 		"/>
		<path class="st6" d="M432.88,411.35c1.47,6.47,7.91,10.53,14.38,9.07l36.73-8.32l-5.31-23.45l-36.73,8.32
			C435.47,398.44,431.41,404.88,432.88,411.35L432.88,411.35z"/>
		<path class="st5" d="M416.24,81.34c-27.59-11.35-54.85-12.17-81.73-1.6l-11.22-40.06h102.57L416.24,81.34z"/>
		<path class="st0" d="M465.92,384.23l20.83,38.46c35.04-9.77,65.41-40.59,94.55-76.92l-8.01-25.64l-49.68,12.82L465.92,384.23z"/>
		<path class="st2" d="M450.7,304.9h-6.41c0-90.67-18.67-153.85-36.86-153.85l-1.6-6.41c16.31,0,26.72,26.3,32.57,48.36
			C446.33,222.91,450.7,262.65,450.7,304.9z"/>
		<path class="st2" d="M303.26,282.46h-6.41c0-83.04,18.8-134.62,46.48-134.62l-1.6,6.41C322.58,154.26,303.26,193.9,303.26,282.46z
			"/>
		
			<ellipse transform="matrix(0.1602 -0.9871 0.9871 0.1602 73.2661 699.1207)" class="st2" cx="447.49" cy="306.5" rx="16.03" ry="16.03"/>
		<path class="st2" d="M277.62,320.93h-6.41c0-22.98,12.94-41.67,28.85-41.67v6.41C287.68,285.67,277.62,301.49,277.62,320.93z"/>
		<path class="st2" d="M328.9,320.93h-6.41c0-19.44-10.06-35.26-22.44-35.26v-6.41C315.96,279.26,328.9,297.95,328.9,320.93z"/>
		<circle class="st2" cx="325.69" cy="322.53" r="6.41"/>
		<circle class="st2" cx="274.41" cy="322.53" r="6.41"/>
		<polygon class="st3" points="194.28,263.58 234.28,270.72 325.69,400.71 277.13,389.28 		"/>
		<path class="st2" d="M187.19,261.99c-1.88,0.03-3.38,1.57-3.35,3.45c0.01,0.65,0.2,1.28,0.56,1.82l85.45,129.65
			c0.48,0.72,1.21,1.24,2.06,1.44l39.76,9.35c1.83,0.43,3.65-0.7,4.08-2.53c0.22-0.94,0.03-1.94-0.53-2.73l-93.82-133.4
			c-0.51-0.73-1.3-1.23-2.18-1.39l-31.39-5.61C187.62,262.01,187.4,261.99,187.19,261.99z"/>
		<path class="st6" d="M240.49,354.69l2.37,23.92l37.48-3.72c6.61-0.66,11.42-6.55,10.76-13.16c-0.66-6.59-6.54-11.41-13.13-10.76
			L240.49,354.69z"/>
		<path class="st0" d="M207.9,351.92c0.11,16.98,13.9,30.69,30.88,30.71h6.16l4.49-37.39l-37.15-13.37L207.9,351.92z"/>
		<path class="st0" d="M29.31,875.67c25.58,34.26,78.68,37.86,78.68,37.86s11.63-51.93-13.95-86.19s-78.68-37.86-78.68-37.86
			S3.73,841.42,29.31,875.67z"/>
		<path class="st0" d="M159.61,888.55c-16.88,22.6-51.92,24.98-51.92,24.98s-7.67-34.27,9.21-56.87
			c16.88-22.6,51.92-24.98,51.92-24.98S176.49,865.94,159.61,888.55z"/>
	</g>
</g>
</svg>
